PathFileType	4	(X/Y/Z)	/Users/visionmauri/Downloads/Videos/OAW03-top_Sports2D/OAW03-top_Sports2D_m_person00.trc
DataRate	CameraRate	NumFrames	NumMarkers	Units	OrigDataRate	OrigDataStartFrame	OrigNumFrames
30.0	30.0	8	22	m	30.0	0	2146
Frame#	Time	Hip			RHip			RKnee			RAnkle			RBigToe			RSmallToe			RHeel			LHip			LKnee			LAnkle			LBigToe			LSmallToe			LHeel			Neck			Head			Nose			RShoulder			RElbow			RWrist			LShoulder			LElbow			LWrist			
		X1	Y1	Z1	X2	Y2	Z2	X3	Y3	Z3	X4	Y4	Z4	X5	Y5	Z5	X6	Y6	Z6	X7	Y7	Z7	X8	Y8	Z8	X9	Y9	Z9	X10	Y10	Z10	X11	Y11	Z11	X12	Y12	Z12	X13	Y13	Z13	X14	Y14	Z14	X15	Y15	Z15	X16	Y16	Z16	X17	Y17	Z17	X18	Y18	Z18	X19	Y19	Z19	X20	Y20	Z20	X21	Y21	Z21	X22	Y22	Z22
0	0.0	1.7472027812160154	0.6177724338291397	0.0301	1.7304044968090013	0.5830404152166102	0.0301	1.8325722190968423	0.4880397976904702	0.129	1.924316634180755	0.4255316512330728	0.023	1.97145575283029	0.3919415634088345	0.2179	1.954874791703	0.3819485626719096	0.1804	1.9379672763862235	0.4220379165820367	-0.0119	1.775363581401743	0.6412110935471295	0.0301	1.8894692913980176	0.5584397059309584	0.129	1.974529222413394	0.48724759476182267	0.023	2.0183025044143683	0.4493668262351588	0.2179	2.0246403000860416	0.469015189045448	0.1804	1.9810342379987829	0.4744967528183451	-0.0119	1.5694394159173632	0.7548975326728657	0.0008	1.4920234438984945	0.8153160532967705	0.0655	1.5578927740027078	0.7647878123419188	0.1076	1.545033096123363	0.6904088098644604	-0.01275	1.6291593208416628	0.5968139903149596	0.0702	1.7040207236997715	0.5347338435980179	0.1076	1.625574712641905	0.7946184895292923	-0.01275	1.7380794063006104	0.7377410411938102	0.0702	1.8201186252959196	0.6817239457612733	0.1076
1	0.03334887334887335	1.7474563673337733	0.6178726796175852	0.0301	1.7304767359698543	0.5840462020137285	0.0301	1.8327797562293087	0.48829634584466625	0.129	1.9239662974002858	0.4251296080112942	0.023	1.971164599413238	0.3924514074792205	0.2179	1.9548630259584947	0.3824816679729951	0.1804	1.9375612946348508	0.42087583637266746	-0.0119	1.7750114914072148	0.6414016260599549	0.0301	1.8888970164413905	0.5587535442082919	0.129	1.9749931819008677	0.48680738434063114	0.023	2.018761365105725	0.4498625011020658	0.2179	2.025101108904268	0.4691936302480945	0.1804	1.9813331818452269	0.4742754948522898	-0.0119	1.5692334234677234	0.7547227813089324	0.0008	1.4920246240598014	0.8157251392243852	0.0655	1.5571366799996886	0.7660640984122075	0.1076	1.5442713932795062	0.689941022536902	-0.01275	1.629074492042993	0.5969500698721004	0.0702	1.704015070286686	0.534792338340539	0.1076	1.6261674592233337	0.7946275231954049	-0.01275	1.737962531085021	0.7378325341349853	0.0702	1.8202636262796348	0.6817304368597731	0.1076
2	0.0666977466977467	1.7476893062140313	0.6176669596924536	0.0301	1.7303278020532142	0.5850379099391236	0.0301	1.8328051622813477	0.4885037839655743	0.129	1.923556052527377	0.42477566947280093	0.023	1.970890669414971	0.39284581677962455	0.2179	1.9547786852856008	0.3824048241700225	0.1804	1.937031663591641	0.41999580930425023	-0.0119	1.7746728742609665	0.6416032082041707	0.0301	1.8886885606001123	0.5587638003734486	0.129	1.9755290172293472	0.4863326077785298	0.023	2.019422692219476	0.45015955767955124	0.2179	2.0259902100628984	0.46910102873258774	0.1804	1.9815357131563789	0.47418773159866734	-0.0119	1.5689875573415568	0.7544630116050889	0.0008	1.4918093900319698	0.8157357883500287	0.0655	1.5564290019135516	0.766731856904842	0.1076	1.543827466720554	0.6897193920833342	-0.01275	1.6289854654369649	0.5970313149408629	0.0702	1.704240411168027	0.5346980182088023	0.1076	1.6266141920868553	0.7945581020079525	-0.01275	1.7378164288740527	0.7379394473077773	0.0702	1.8201750732415578	0.6816372685819442	0.1076
3	0.10004662004662004	1.7479071958367187	0.6171957140514499	0.0301	1.7299360239812682	0.5855212627028674	0.0301	1.8324944526412865	0.4884844149769417	0.129	1.9232771050956299	0.42468890684108274	0.023	1.970694777873055	0.39281933480475806	0.2179	1.9544543152178855	0.3816864001120044	0.1804	1.936610896817998	0.4198470424614595	-0.0119	1.774375410616158	0.6418350225617515	0.0301	1.8889610864735509	0.5584433545118308	0.129	1.9758395179442572	0.48609352783312765	0.023	2.020082015039871	0.4500318833724561	0.2179	2.026947264818945	0.4687918520460646	0.1804	1.9815228233685607	0.47428569400931747	-0.0119	1.568827764069702	0.753988087967457	0.0008	1.4916205856513196	0.8149870031677027	0.0655	1.556231847768401	0.7658034295109946	0.1076	1.5439908943000893	0.6897049023153272	-0.01275	1.62886489359873	0.5969390988412705	0.0702	1.7049042790899294	0.5343201051419676	0.1076	1.6265373646024919	0.7943097612641984	-0.01275	1.7376128782913405	0.7380864693349952	0.0702	1.819595870146393	0.6812008087236738	0.1076
4	0.1333954933954934	1.7481006799058993	0.6167492740806799	0.0301	1.7297813793019121	0.5853443843273807	0.0301	1.8321333381884901	0.4881384320756941	0.129	1.9232994637200327	0.4248780921942459	0.023	1.970551585505126	0.3923853509037377	0.2179	1.9540376457275714	0.3811992302494777	0.1804	1.9367321222189433	0.4204780625372451	-0.0119	1.774376925185418	0.6418938183963873	0.0301	1.889280834344363	0.5582088860144679	0.129	1.9756905191829208	0.4862691733188046	0.023	2.020358947442757	0.4496742693474718	0.2179	2.027383303017488	0.4686070461352876	0.1804	1.9812665054172753	0.4743420769148957	-0.0119	1.5688111618705591	0.7532584983600442	0.0008	1.4917722301733434	0.8136948463436612	0.0655	1.5562889794685668	0.7639752785631679	0.1076	1.5444002786063131	0.6894936386285461	-0.01275	1.6286878376152105	0.5966014805744775	0.0702	1.7058648654353266	0.5336874753799838	0.1076	1.6259548243181163	0.7939259451417188	-0.01275	1.73728074130702	0.7383586699216542	0.0702	1.8187236051196505	0.6803562109113909	0.1076
5	0.16674436674436674	1.748289807760998	0.6164309187424875	0.0301	1.730275123609686	0.5849102471132318	0.0301	1.8322157475508256	0.4875635163534529	0.129	1.923401464153165	0.4251175764637735	0.023	1.9705094855061696	0.39201592838146304	0.2179	1.9540197568570756	0.38157400103593436	0.1804	1.9374635333673118	0.4214581995509959	-0.0119	1.7749598854196513	0.6415580898799202	0.0301	1.8892739611621163	0.5583684775849171	0.129	1.9753512635628858	0.48665235464079015	0.023	2.020165328771097	0.44939334878927023	0.2179	2.027383474655847	0.46865821750609027	0.1804	1.9808561291028481	0.4740590350597365	-0.0119	1.56866851388925	0.7527610595875601	0.0008	1.4918437069102202	0.8127100748513861	0.0655	1.5556960473222403	0.7632596360000571	0.1076	1.5444532884559232	0.6889873941800899	-0.01275	1.6284443217182158	0.5962049323398333	0.0702	1.7065187108484925	0.5330586647565712	0.1076	1.6253829267229274	0.7936155426744432	-0.01275	1.7368304553175058	0.7387699203824326	0.0702	1.8181818734780955	0.6797327531989507	0.1076
6	0.2000932400932401	1.74855167100662	0.616212897942542	0.0301	1.7308880138119744	0.58442769361576	0.0301	1.8326007371323803	0.4870359595496786	0.129	1.9232529341165863	0.4251876593027348	0.023	1.9707076681140026	0.39200526776692324	0.2179	1.9544960511391507	0.38232703619216674	0.1804	1.9381257746263765	0.4220187012823345	-0.0119	1.775616338686663	0.6412825017474435	0.0301	1.8891226782233193	0.5587211837942245	0.129	1.9752616082949264	0.4869625883307362	0.023	2.0198326548648198	0.44920334259349365	0.2179	2.027272145475674	0.4688239746061243	0.1804	1.9805771292659788	0.4736184273159173	-0.0119	1.5681775019337028	0.7531108527422564	0.0008	1.491383561975468	0.8123738979876762	0.0655	1.5546383022783774	0.7638276762411929	0.1076	1.5441681055157848	0.6886106590140204	-0.01275	1.6281815725118707	0.5961414482923163	0.0702	1.7063108850683282	0.5329269123539785	0.1076	1.6251219913838875	0.7934481748692459	-0.01275	1.7364238861301986	0.7390634477238629	0.0702	1.8181439207213967	0.6800409548265888	0.1076
7	0.23344211344211344	1.7487162778413416	0.6161369814904845	0.0301	1.730975906531128	0.5839336452708007	0.0301	1.8327867219465195	0.4868770022300369	0.129	1.9229546205747885	0.424897218710916	0.023	1.9710327942220982	0.39209716499437625	0.2179	1.9550173085932876	0.3827053549305378	0.1804	1.9380470848327886	0.42148538091403537	-0.0119	1.775587918194443	0.6415396404568817	0.0301	1.888983390864113	0.5589601941779289	0.129	1.975439782019197	0.4870462438447247	0.023	2.0196291354046867	0.44913460400630884	0.2179	2.0269491508027837	0.46905224493246184	0.1804	1.9807272216253422	0.4735118058937687	-0.0119	1.567699067385043	0.7539541451825634	0.0008	1.4910639188943449	0.8120814689482845	0.0655	1.554275684618912	0.7642073837076259	0.1076	1.54389683404374	0.6886323547847332	-0.01275	1.6280785665210835	0.5965206371278146	0.0702	1.7053850459146414	0.5335651195602567	0.1076	1.6251382654637823	0.7933644717629441	-0.01275	1.7361726059351863	0.7389560929258887	0.0702	1.8181186448371993	0.6809835860341366	0.1076
